<svg xmlns="http://www.w3.org/2000/svg" viewBox="0 0 64 64" role="img" aria-label="C3">
  <rect width="64" height="64" rx="14" fill="#f8fbff"/>
  <path
    d="M32 6 54.52 19v26L32 58 9.48 45V19L32 6Z"
    fill="#1967d2"
    stroke="#0b3d91"
    stroke-width="3"
    stroke-linejoin="round"
  />
  <path
    d="M40.82 39.76c-2.1 2.38-5.02 3.66-8.42 3.66-7.02 0-11.82-4.8-11.82-11.42s4.8-11.42 11.82-11.42c3.4 0 6.32 1.28 8.42 3.66l-4.04 3.68c-1.08-1.22-2.5-1.9-4.2-1.9-3.22 0-5.36 2.38-5.36 5.98s2.14 5.98 5.36 5.98c1.7 0 3.12-.68 4.2-1.9l4.04 3.68Z"
    fill="#ffffff"
  />
</svg>
